<?xml version="1.0" standalone="no"?>
<!DOCTYPE svg PUBLIC "-//W3C//DTD SVG 20010904//EN"
 "http://www.w3.org/TR/2001/REC-SVG-20010904/DTD/svg10.dtd">
<svg version="1.0" xmlns="http://www.w3.org/2000/svg"
 width="612.000000pt" height="612.000000pt" viewBox="0 0 612.000000 612.000000"
 preserveAspectRatio="xMidYMid meet">
<metadata>
Created by potrace 1.14, written by Peter Selinger 2001-2017
</metadata>
<g transform="translate(0.000000,612.000000) scale(0.100000,-0.100000)"
fill="#000000" stroke="none">
<path d="M3089 5671 c-34 -7 -64 -18 -229 -81 -41 -16 -101 -39 -133 -51 -49
-17 -61 -27 -73 -55 -17 -41 -27 -45 -18 -6 6 22 5 25 -7 16 -8 -7 -43 -11
-79 -11 -56 2 -76 -4 -148 -37 -139 -66 -178 -129 -153 -251 15 -71 33 -102
67 -115 13 -5 24 -15 24 -21 0 -7 8 -21 18 -32 13 -16 14 -19 2 -15 -22 8 -50
-10 -50 -30 0 -10 -5 -23 -11 -29 -13 -13 -7 -205 11 -323 12 -81 5 -253 -12
-308 l-10 -34 -24 23 c-34 32 -47 15 -52 -67 -6 -86 10 -103 33 -34 18 53 19
55 72 64 28 5 33 2 47 -28 21 -46 21 -78 -1 -74 -10 2 -25 -10 -37 -29 -12
-18 -34 -37 -50 -42 -26 -10 -28 -13 -21 -48 9 -49 22 -73 41 -73 8 0 17 8 21
18 3 9 14 26 23 37 55 64 74 161 90 445 7 136 14 165 59 235 11 17 22 41 24
55 2 14 12 43 21 64 10 22 16 55 14 73 -2 19 1 33 7 33 5 0 15 8 22 19 8 13
22 18 45 17 18 -2 39 2 45 7 14 10 57 11 141 2 52 -5 57 -3 99 35 17 15 46 18
238 21 109 1 136 -3 165 -26 8 -7 33 -18 55 -25 22 -7 34 -15 27 -18 -10 -3
-8 -8 5 -17 13 -10 20 -10 26 -2 5 9 11 8 20 -4 20 -26 106 -69 137 -69 19 0
30 -5 30 -14 0 -19 57 -39 64 -23 3 9 7 8 14 -2 7 -9 19 -11 38 -6 67 17 92
15 140 -11 36 -19 56 -24 81 -19 28 5 35 3 42 -17 4 -12 5 -36 2 -53 -10 -49
-5 -117 12 -160 12 -30 16 -75 17 -174 0 -136 15 -261 31 -261 14 0 22 68 15
126 -3 30 -1 87 5 127 29 195 41 266 55 312 19 62 30 275 15 275 -6 0 -10 3
-9 8 7 32 -45 141 -92 191 -13 14 -24 29 -22 33 1 4 -14 14 -33 22 -38 16 -48
32 -14 23 21 -6 20 -5 -2 20 -13 14 -36 31 -51 39 -31 16 -40 51 -11 40 15 -6
16 -5 1 11 -8 10 -29 48 -46 84 -26 55 -38 68 -69 81 -59 24 -126 43 -147 40
-10 -1 -31 5 -45 14 -17 12 -26 14 -29 6 -6 -19 -40 -14 -38 5 1 15 -14 20
-84 32 -47 8 -87 18 -90 21 -11 15 -222 32 -271 21z m-172 -225 c-2 -6 -15
-11 -29 -12 -14 -1 -33 -4 -42 -7 -10 -4 -16 -1 -16 9 0 8 10 18 22 23 27 10
70 2 65 -13z m-128 5 c16 -10 6 -31 -14 -31 -7 0 -16 -6 -18 -12 -3 -7 -6 2
-6 20 -1 33 11 40 38 23z m451 -19 c0 -9 -5 -24 -10 -32 -7 -11 -10 -5 -10 23
0 23 4 36 10 32 6 -3 10 -14 10 -23z m-240 8 c0 -5 -5 -10 -11 -10 -5 0 -7 5
-4 10 3 6 8 10 11 10 2 0 4 -4 4 -10z m290 -10 c0 -11 -4 -20 -10 -20 -5 0
-10 9 -10 20 0 11 5 20 10 20 6 0 10 -9 10 -20z m273 -26 c45 -24 59 -41 52
-64 -12 -38 -52 -12 -46 30 1 9 -1 11 -6 5 -10 -12 -70 -55 -78 -55 -13 0 -3
28 15 45 14 13 17 21 9 26 -13 7 -4 29 12 29 6 0 24 -7 42 -16z m-977 -42
c-23 -23 -33 -6 -10 19 12 13 20 16 22 9 3 -7 -3 -19 -12 -28z m764 24 c0 -3
-4 -8 -10 -11 -5 -3 -10 -1 -10 4 0 6 5 11 10 11 6 0 10 -2 10 -4z m490 -21
c0 -8 -9 -15 -20 -15 -13 0 -18 5 -14 15 4 8 12 15 20 15 8 0 14 -7 14 -15z
m-181 -14 c21 -13 24 -50 5 -58 -23 -9 -51 22 -36 40 7 8 9 17 5 20 -9 10 10
8 26 -2z m-189 -15 c0 -2 -8 -10 -17 -17 -16 -13 -17 -12 -4 4 13 16 21 21 21
13z m232 -58 c-7 -7 -12 -8 -12 -2 0 14 12 26 19 19 2 -3 -1 -11 -7 -17z m198
-8 c0 -5 -2 -10 -4 -10 -3 0 -8 5 -11 10 -3 6 -1 10 4 10 6 0 11 -4 11 -10z
m-215 -20 c3 -5 -3 -10 -15 -10 -12 0 -18 5 -15 10 3 6 10 10 15 10 5 0 12 -4
15 -10z m55 -9 c0 -5 -9 -7 -20 -4 -11 3 -20 7 -20 9 0 2 9 4 20 4 11 0 20 -4
20 -9z m60 -17 c0 -2 -9 -4 -20 -4 -11 0 -20 4 -20 9 0 5 9 7 20 4 11 -3 20
-7 20 -9z m-5 -39 c27 -7 28 -8 10 -15 -34 -14 -64 -11 -85 10 -11 11 -28 21
-37 21 -10 1 -4 4 12 8 18 4 38 2 50 -5 11 -6 34 -15 50 -19z m48 -64 c-3 -11
-11 -17 -19 -14 -10 4 -11 8 -1 19 17 19 26 17 20 -5z m67 4 l25 -14 -37 -1
c-36 0 -47 8 -31 23 9 9 14 8 43 -8z m100 4 c0 -15 -18 -19 -23 -6 -3 8 1 14
9 14 8 0 14 -4 14 -8z m-219 -12 c-1 -12 -15 -9 -19 4 -3 6 1 10 8 8 6 -3 11
-8 11 -12z m169 -73 c0 -21 4 -24 20 -19 32 10 23 -12 -9 -23 -24 -8 -31 -7
-35 5 -4 9 -1 22 5 29 9 11 9 14 0 14 -7 0 -9 5 -6 10 11 19 25 10 25 -16z"/>
<path d="M2745 4691 c-80 -19 -145 -53 -164 -83 -19 -31 0 -43 38 -23 18 9 40
15 49 14 9 -1 25 1 35 6 10 4 24 2 34 -6 14 -12 16 -12 8 0 -6 11 -4 13 10 7
11 -4 38 -10 62 -13 24 -3 43 -9 43 -12 0 -3 -19 -12 -42 -19 -24 -8 -50 -19
-58 -26 -8 -7 -31 -19 -50 -26 -38 -16 -54 -30 -88 -77 -28 -40 -28 -63 1 -65
40 -2 44 -3 58 -14 22 -17 122 -64 136 -64 7 0 34 -10 59 -22 42 -19 50 -20
98 -8 92 23 172 65 200 107 14 21 26 48 26 60 0 13 5 23 10 23 6 0 10 6 10 14
0 27 60 37 87 14 6 -5 30 -47 53 -94 40 -83 43 -85 103 -113 56 -26 70 -28
154 -26 77 3 97 7 122 26 17 13 31 29 31 37 0 11 13 13 60 10 67 -5 68 -4 45
63 -10 29 -27 52 -49 67 -18 12 -48 36 -66 52 -19 17 -37 30 -42 30 -4 0 -8 7
-8 16 0 14 7 16 48 9 26 -4 58 -8 70 -10 13 -2 31 -10 40 -18 22 -18 51 -29
63 -22 14 9 -13 55 -32 55 -9 0 -19 3 -21 8 -9 20 -85 66 -131 78 -47 13 -164
26 -244 27 -39 0 -141 -51 -149 -75 -3 -10 -12 -18 -21 -18 -10 0 -14 -6 -10
-20 7 -26 -1 -30 -43 -20 -25 6 -29 8 -12 9 23 1 23 2 -7 27 -17 14 -31 34
-31 45 0 17 -17 25 -44 20 -5 -1 -18 7 -30 17 -23 21 -63 30 -171 36 -39 3
-93 7 -120 10 -31 3 -77 -2 -120 -13z m75 -272 c15 -27 9 -32 -24 -20 -26 10
-32 21 -19 34 13 13 32 7 43 -14z m906 -30 c8 -13 -13 -29 -39 -29 -15 0 -16
3 -7 20 12 22 35 26 46 9z"/>
<path d="M4030 4023 c-6 -32 -17 -86 -25 -120 -18 -74 -18 -105 -1 -48 9 28
19 41 34 43 43 7 49 40 27 150 -11 48 -22 39 -35 -25z"/>
<path d="M2395 4047 c-4 -10 -5 -34 -2 -53 5 -31 4 -34 -9 -23 -10 8 -18 9
-25 2 -13 -13 15 -43 42 -43 16 0 19 7 18 38 -1 20 -5 51 -9 67 -6 25 -8 27
-15 12z"/>
<path d="M3130 4036 c-19 -7 -36 -20 -38 -29 -3 -14 6 -17 57 -17 48 0 61 -3
61 -15 0 -22 -23 -28 -62 -16 -18 5 -49 14 -68 20 l-35 10 38 -33 c20 -18 37
-37 37 -41 0 -15 -42 -44 -56 -38 -8 3 -14 1 -14 -5 0 -6 -21 -15 -47 -20 -37
-8 -55 -7 -87 6 -47 18 -58 30 -52 55 3 11 -2 17 -12 17 -21 0 -126 -84 -112
-88 6 -2 10 -10 10 -19 0 -11 -7 -13 -30 -8 -24 5 -30 3 -30 -10 0 -12 6 -15
19 -10 23 7 28 -4 36 -101 5 -62 3 -73 -15 -89 -14 -12 -28 -16 -50 -12 -32 7
-33 5 -30 -50 1 -27 -1 -31 -19 -26 -14 4 -24 -3 -35 -26 -9 -17 -21 -31 -26
-31 -5 0 4 -21 20 -46 16 -26 34 -72 40 -103 6 -31 16 -65 21 -76 6 -12 11
-29 13 -38 1 -9 8 -23 14 -29 7 -7 12 -18 12 -25 0 -7 7 -13 15 -13 9 0 19 -8
22 -17 12 -31 63 -73 88 -73 13 0 27 -4 30 -10 3 -5 32 -22 63 -36 70 -31 99
-58 107 -95 4 -16 17 -37 31 -48 13 -10 24 -25 24 -33 0 -21 30 -45 68 -53 17
-3 32 -11 32 -16 0 -5 9 -9 20 -9 15 0 20 7 20 25 0 14 6 25 13 25 6 1 0 8
-15 16 -29 15 -36 45 -19 73 5 8 36 16 79 20 62 6 74 11 110 43 23 20 53 44
69 52 40 21 82 69 142 163 36 57 73 98 117 134 67 53 90 83 85 109 -4 19 -20
30 -36 24 -11 -5 -15 7 -16 54 -1 26 -17 29 -35 5 -17 -23 -17 -29 -1 -45 17
-17 3 -78 -18 -78 -8 0 -15 -4 -15 -10 0 -5 -7 -10 -16 -10 -9 0 -29 -11 -46
-25 -35 -29 -93 -33 -139 -10 -16 9 -35 15 -42 14 -6 -1 -19 0 -27 4 -20 7
-73 21 -85 21 -5 1 -15 12 -22 26 -6 14 -12 19 -12 13 -1 -7 -10 -13 -21 -13
-20 0 -27 14 -11 24 5 3 11 20 13 36 4 27 2 31 -16 28 -13 -2 -20 -9 -17 -18
10 -40 6 -45 -27 -42 -22 3 -34 -1 -38 -13 -4 -10 -13 -13 -25 -10 -11 4 -19
2 -19 -3 0 -20 -59 -30 -169 -31 -93 -1 -118 2 -133 16 -10 9 -18 23 -18 31 0
8 -7 20 -15 26 -14 10 -14 19 -4 64 11 44 16 52 36 52 20 0 23 5 21 29 -3 36
17 61 48 61 14 0 25 8 29 21 6 17 12 20 37 15 22 -4 34 -1 42 10 10 13 19 14
52 5 38 -10 110 -13 252 -12 70 1 71 2 55 19 -16 17 -20 17 -36 4 -14 -12 -24
-13 -51 -5 -23 7 -38 7 -44 1 -6 -6 -26 -8 -46 -4 -32 6 -36 10 -36 36 0 28 3
30 38 30 21 0 43 -5 49 -11 8 -8 13 -8 17 0 12 18 74 13 85 -6 6 -10 11 -12
11 -5 0 7 13 12 30 12 25 0 30 -4 30 -23 0 -13 -5 -28 -12 -35 -9 -9 -4 -12
25 -12 47 0 128 -21 145 -37 7 -7 25 -13 39 -13 18 0 28 -8 36 -30 13 -35 41
-40 57 -9 9 17 8 25 -6 40 -17 19 -17 21 0 53 12 22 16 49 14 85 -3 58 -20 81
-46 65 -9 -6 -45 -10 -80 -9 -53 2 -66 6 -87 29 -13 14 -31 26 -38 26 -8 0
-17 6 -20 13 -6 17 15 68 35 85 31 25 -9 82 -58 82 -19 0 -54 -28 -54 -43 0
-4 15 -10 33 -15 l32 -9 -25 -11 c-19 -7 -29 -7 -39 3 -12 11 -18 11 -38 -2
-31 -20 -78 -3 -69 25 8 24 -28 62 -57 61 -12 0 -38 -6 -57 -13z m208 -216
c15 -1 15 -2 2 -9 -27 -16 -100 -17 -100 -2 0 10 47 20 68 14 8 -1 21 -3 30
-3z m156 -30 c14 -5 26 -16 26 -24 0 -18 -26 -12 -60 14 -19 15 -21 20 -8 20
9 0 28 -4 42 -10z m-494 -10 c0 -5 -5 -10 -11 -10 -5 0 -7 5 -4 10 3 6 8 10
11 10 2 0 4 -4 4 -10z m108 -73 c3 -14 -1 -18 -20 -15 -12 2 -24 11 -26 21 -3
14 1 18 20 15 12 -2 24 -11 26 -21z m352 -8 c0 -5 -7 -9 -15 -9 -15 0 -20 12
-9 23 8 8 24 -1 24 -14z"/>
<path d="M2410 3898 c0 -10 -4 -18 -10 -18 -18 0 -10 -18 10 -23 22 -6 27 16
10 43 -8 13 -10 12 -10 -2z"/>
<path d="M2658 3833 c-6 -34 -2 -60 9 -56 15 6 17 49 3 58 -5 3 -11 3 -12 -2z"/>
<path d="M2412 3789 c-12 -19 -12 -20 10 -14 29 9 31 11 23 24 -9 16 -19 13
-33 -10z"/>
<path d="M3982 3780 c0 -14 2 -19 5 -12 2 6 2 18 0 25 -3 6 -5 1 -5 -13z"/>
<path d="M2606 3765 c-3 -8 -1 -15 4 -15 6 0 10 7 10 15 0 8 -2 15 -4 15 -2 0
-6 -7 -10 -15z"/>
<path d="M3090 3606 c0 -3 15 -12 33 -20 l32 -14 -29 -1 c-16 -1 -46 4 -67 11
-22 6 -42 8 -46 5 -9 -9 37 -57 54 -57 7 0 13 -6 13 -14 0 -27 28 -36 126 -42
146 -9 150 -9 183 28 16 18 27 36 25 40 -3 5 -27 8 -54 8 -54 0 -83 8 -75 21
10 16 -36 30 -115 36 -44 3 -80 3 -80 -1z"/>
<path d="M3368 3583 c7 -3 16 -2 19 1 4 3 -2 6 -13 5 -11 0 -14 -3 -6 -6z"/>
<path d="M3704 2765 c7 -131 -4 -212 -30 -222 -8 -3 -30 9 -49 25 -48 43 -89
48 -177 24 -40 -12 -86 -24 -101 -27 -33 -7 -47 -33 -25 -49 20 -14 13 -61
-11 -79 -58 -42 -72 -136 -19 -128 4 0 20 -4 35 -11 15 -6 48 -14 73 -17 l45
-7 -40 -21 c-58 -32 -25 -28 63 8 89 35 198 97 247 141 43 37 44 30 4 -39 -17
-30 -29 -56 -27 -58 3 -3 16 1 31 8 28 13 47 45 47 78 0 11 6 30 14 42 8 12
22 60 31 107 10 47 24 99 32 116 13 28 12 37 -8 90 -15 41 -36 72 -68 102 -72
66 -75 63 -67 -83z"/>
<path d="M2502 2803 c5 -32 11 -80 13 -106 2 -26 7 -52 10 -57 9 -14 16 -49
19 -91 2 -21 13 -47 25 -60 23 -25 24 -28 13 -47 -7 -11 -20 -16 -69 -26 -7
-1 -34 -21 -62 -44 -27 -23 -55 -42 -62 -42 -7 0 -22 -8 -33 -19 -12 -10 -57
-37 -101 -61 -90 -47 -107 -60 -82 -60 9 0 17 -4 17 -10 0 -5 7 -10 15 -10 8
0 15 -4 15 -10 0 -5 -7 -10 -15 -10 -8 0 -15 5 -15 10 0 19 -17 10 -29 -17
-10 -22 -10 -28 4 -35 9 -5 12 -14 8 -21 -4 -7 -8 -24 -9 -39 -1 -21 3 -28 17
-28 11 0 19 5 19 10 0 6 -4 10 -10 10 -5 0 -10 5 -10 10 0 6 7 10 15 10 8 0
15 -6 15 -14 0 -16 47 -49 59 -42 6 4 7 -15 2 -44 -1 -2 -6 1 -13 8 -21 21
-48 14 -48 -10 0 -30 15 -52 28 -44 6 3 12 1 14 -6 3 -8 9 -8 22 -1 20 11 56
6 56 -7 0 -5 -10 -10 -22 -12 -12 -2 -24 -9 -26 -17 -3 -9 0 -12 10 -9 8 3 24
-2 37 -11 21 -16 21 -18 4 -33 -10 -9 -29 -18 -42 -20 -34 -4 -38 -25 -7 -39
14 -7 26 -18 26 -26 0 -10 -5 -11 -19 -3 -28 15 -31 13 -30 -17 0 -22 2 -24 7
-10 7 15 10 16 26 4 15 -11 17 -19 9 -43 -10 -31 -43 -46 -43 -19 0 8 -8 19
-17 22 -10 4 -21 11 -25 17 -5 7 -8 4 -8 -6 0 -11 -8 -18 -20 -18 -11 0 -20
-4 -20 -10 0 -10 14 -14 38 -11 6 1 12 -7 12 -19 0 -15 -6 -20 -25 -20 -18 0
-25 -5 -25 -20 0 -14 7 -20 21 -20 18 0 20 -4 14 -29 -7 -34 4 -44 39 -35 22
5 24 10 19 35 -5 25 -2 29 16 29 20 0 22 -4 25 -54 1 -27 26 -33 26 -6 0 11 7
31 15 44 14 22 14 24 -3 28 -23 6 -38 66 -21 82 9 8 10 8 5 -1 -7 -13 13 -63
25 -63 4 0 11 5 14 10 8 13 22 5 35 -21 9 -16 6 -24 -17 -45 -27 -25 -27 -25
-5 -31 15 -4 22 -13 22 -30 0 -22 -2 -24 -15 -13 -12 10 -19 10 -27 2 -7 -7
-22 -12 -34 -12 -14 0 -25 -8 -29 -21 -6 -19 -8 -19 -24 -5 -22 20 -31 20 -31
2 0 -8 9 -18 20 -21 20 -7 27 -29 11 -39 -5 -3 -12 -21 -15 -41 -8 -39 -23
-55 -22 -22 1 15 -6 23 -21 25 -13 2 -23 10 -23 20 0 12 -3 13 -11 5 -9 -9 -8
-18 5 -37 9 -15 12 -26 6 -26 -5 0 -10 5 -10 10 0 6 -11 10 -24 10 -13 0 -26
7 -30 15 -9 24 -39 19 -31 -5 10 -31 -4 -60 -27 -60 -20 0 -20 -1 -5 -18 25
-27 21 -37 -16 -38 -51 -1 -87 -13 -87 -30 0 -8 7 -17 15 -20 8 -4 13 -10 10
-15 -3 -4 -13 -5 -22 -2 -10 4 -14 2 -11 -7 6 -20 48 -33 48 -15 0 8 6 12 14
9 8 -3 17 -1 21 5 12 20 22 11 21 -16 0 -16 3 -40 7 -55 5 -18 3 -28 -3 -28
-6 0 -13 14 -16 30 -4 17 -9 30 -11 30 -10 0 -33 -30 -33 -43 0 -8 -7 -17 -15
-21 -9 -3 -15 0 -15 9 0 8 -10 24 -22 35 -20 18 -24 19 -34 5 -15 -20 -50 -19
-58 2 -3 10 -9 25 -12 33 -5 12 -3 12 7 -1 18 -21 47 -31 55 -18 3 6 -4 13
-15 16 -14 4 -20 11 -17 22 14 46 17 91 8 91 -6 0 -14 -5 -17 -10 -5 -8 -11
-7 -21 0 -7 7 -19 10 -26 8 -7 -3 1 -12 20 -22 17 -9 32 -23 32 -31 0 -22 -28
-18 -40 5 -6 11 -15 18 -21 14 -5 -3 -17 0 -25 7 -13 10 -17 10 -23 0 -6 -9
-10 -6 -14 11 -10 35 -8 43 5 30 23 -23 38 -14 32 18 l-6 30 31 -16 c30 -15
33 -15 47 2 14 18 14 18 29 0 8 -10 11 -24 8 -30 -4 -6 4 -4 17 5 18 12 24 24
22 43 -2 18 1 26 12 26 18 0 21 16 5 26 -6 3 -8 16 -5 29 7 29 -23 44 -40 21
-6 -9 -15 -16 -20 -16 -5 0 -15 -14 -21 -31 -8 -22 -17 -30 -30 -27 -10 2 -17
10 -15 16 1 7 -5 15 -13 18 -8 3 -13 10 -10 15 3 4 12 6 20 2 18 -6 19 1 3 28
-10 17 -10 23 0 26 6 3 12 9 12 15 0 6 -6 8 -14 5 -19 -7 -30 22 -15 39 9 12
9 13 -4 8 -10 -3 -20 2 -27 15 -6 12 -20 21 -31 21 -16 0 -19 4 -13 23 3 12
12 28 18 36 8 12 8 13 -2 7 -10 -6 -11 -1 -7 21 12 53 14 55 45 51 31 -5 41 6
15 16 -22 8 -19 26 4 26 25 0 36 16 16 24 -13 4 -13 9 -3 25 9 15 8 22 -6 36
-9 10 -15 24 -12 32 3 8 6 17 6 19 0 2 7 4 15 4 8 0 15 -9 15 -20 0 -26 30
-60 52 -60 21 0 23 11 6 28 -9 9 -9 15 0 24 7 7 12 20 12 29 0 10 6 19 12 21
9 3 8 12 -5 31 -16 25 -15 32 7 28 14 -3 26 21 26 52 0 40 28 35 32 -5 2 -18
8 -31 13 -28 6 3 9 12 8 20 -1 8 4 18 10 22 9 6 9 10 1 16 -7 4 -13 16 -16 27
-2 11 -10 19 -18 18 -20 -3 -53 74 -41 96 6 10 5 24 -1 34 -7 14 -6 23 6 36 9
10 16 27 16 38 0 12 8 24 17 27 11 4 13 10 6 17 -13 13 -4 69 13 69 8 0 11 6
8 15 -4 9 0 15 9 15 16 0 27 20 27 51 0 10 6 19 14 19 16 0 29 27 17 34 -5 3
-6 17 -3 31 13 68 -58 -3 -115 -115 -15 -31 -39 -66 -73 -107 -6 -7 -8 -23 -4
-36 7 -28 -11 -100 -29 -119 -15 -15 -17 -60 -4 -69 5 -4 1 -12 -10 -18 -16
-8 -22 -25 -28 -76 -4 -43 -3 -70 4 -79 8 -9 8 -21 2 -37 -10 -23 -10 -23 -12
6 -1 26 -2 27 -6 6 -4 -19 -10 -22 -32 -19 -26 4 -26 3 -28 -52 -1 -71 -24
-127 -58 -140 -30 -11 -30 -13 -8 -36 16 -15 16 -17 -1 -29 -10 -8 -13 -16 -7
-19 11 -7 -4 -62 -20 -72 -14 -8 -39 15 -39 37 0 11 -4 19 -10 19 -5 0 -10 9
-10 19 0 11 -4 23 -10 26 -15 10 -12 25 6 25 11 0 14 6 9 20 -4 11 -2 20 4 20
6 0 11 -4 11 -10 0 -5 7 -7 15 -4 8 4 15 11 15 17 0 6 7 18 15 27 8 9 20 43
27 76 6 32 15 61 18 64 14 10 21 68 10 75 -8 5 -5 13 9 26 12 11 21 31 21 44
0 14 4 25 8 25 7 0 32 71 37 105 1 6 14 36 29 68 16 32 26 60 24 63 -12 11
-57 -24 -71 -56 -14 -30 -16 -31 -16 -12 l-1 24 -22 -27 c-13 -15 -31 -34 -40
-43 -10 -9 -18 -22 -18 -29 0 -7 -9 -13 -19 -13 -13 0 -24 -13 -36 -42 -9 -24
-33 -58 -53 -77 -20 -19 -37 -44 -37 -54 -2 -19 -30 -47 -47 -47 -5 0 -13 11
-18 25 -5 14 -16 25 -24 25 -7 0 -16 9 -19 20 -6 25 -36 37 -47 20 -5 -7 -15
-10 -25 -6 -15 5 -17 2 -12 -23 8 -37 -14 -59 -33 -35 -8 8 -22 13 -32 11 -11
-3 -18 0 -18 9 0 13 12 18 33 15 11 -2 37 25 37 39 0 8 8 10 21 7 13 -3 19 -1
16 6 -3 7 -10 11 -16 9 -6 -1 -14 5 -17 13 -10 24 -26 17 -19 -7 6 -19 5 -21
-6 -10 -7 6 -21 12 -31 12 -10 0 -18 7 -18 15 0 8 -4 15 -8 15 -4 0 -8 -19 -8
-42 0 -24 -3 -55 -7 -70 -4 -17 -3 -28 3 -28 5 0 19 -9 31 -21 14 -14 17 -24
10 -33 -12 -15 -4 -55 17 -79 8 -9 12 -20 7 -25 -4 -4 -10 -1 -12 6 -3 6 -9
12 -13 12 -5 0 0 -16 11 -35 12 -19 25 -35 30 -35 5 0 9 -11 9 -25 0 -16 -6
-25 -15 -25 -8 0 -15 5 -15 10 0 6 -7 10 -15 10 -8 0 -15 5 -15 11 0 6 7 8 16
5 11 -4 14 -1 12 12 -2 9 -12 17 -23 17 -18 0 -20 7 -21 58 -1 32 -4 61 -8 64
-3 3 -1 12 5 19 8 10 -1 26 -37 68 -76 88 -99 84 -99 -17 -1 -65 22 -144 53
-187 30 -40 95 -81 138 -87 32 -4 43 -11 53 -35 8 -17 27 -46 44 -65 l30 -34
-31 -32 c-35 -36 -58 -118 -48 -169 17 -85 99 -209 127 -192 5 3 12 -2 15 -10
8 -21 94 -46 139 -40 57 7 97 31 90 55 -4 10 -2 19 4 19 5 0 13 -9 16 -20 6
-20 35 -28 35 -10 0 6 -6 10 -12 10 -9 0 -8 3 2 10 10 6 19 4 31 -8 15 -16 15
-19 -2 -44 -23 -32 -24 -38 -3 -38 8 0 12 -5 9 -10 -8 -13 14 -42 25 -35 8 5
32 -14 47 -38 14 -21 70 -47 103 -47 29 0 32 2 26 25 -8 31 2 54 15 34 5 -8 9
-24 9 -36 0 -13 4 -23 9 -23 19 0 41 12 36 20 -3 5 -1 19 4 33 8 20 7 24 -7
23 -13 -1 -18 8 -19 34 -2 30 -1 32 8 14 7 -14 20 -21 41 -21 26 0 47 -15 48
-34 0 -3 -11 -11 -25 -17 -22 -10 -35 -32 -19 -32 8 0 74 40 74 45 0 2 -4 15
-10 29 -6 18 -15 24 -27 20 -10 -2 -7 1 6 8 19 10 25 10 29 0 2 -7 8 -9 14 -6
12 8 -40 44 -64 44 -12 0 -16 8 -16 29 1 15 -2 33 -5 38 -10 17 16 73 33 70
11 -1 14 6 13 26 -2 32 0 32 32 11 26 -17 50 -10 41 12 -3 8 1 14 10 14 10 0
14 -7 12 -22 -2 -17 -13 -25 -40 -31 -21 -5 -38 -13 -38 -18 0 -15 51 -23 60
-9 6 9 10 6 15 -10 5 -16 3 -26 -9 -32 -9 -5 -16 -16 -16 -24 0 -8 -7 -17 -15
-20 -22 -9 -18 -27 13 -56 24 -24 29 -25 46 -13 10 8 22 12 27 10 4 -3 10 -1
14 5 3 5 -3 10 -14 10 -24 0 -28 18 -6 26 8 4 15 13 15 21 0 9 -6 13 -13 10
-19 -7 -41 8 -33 22 4 6 16 11 27 11 13 0 19 6 17 17 -2 12 5 19 22 23 31 6
39 49 13 67 -15 12 -14 13 10 13 15 0 27 -4 27 -9 0 -5 12 -17 27 -26 19 -13
28 -15 31 -6 3 9 9 7 23 -5 21 -19 16 -34 -12 -34 -10 0 -19 -6 -19 -14 0 -12
-56 -46 -77 -46 -4 0 -8 -13 -8 -30 0 -16 2 -30 5 -30 22 1 86 49 88 68 2 12
8 22 14 22 5 0 7 -7 4 -16 -3 -8 1 -32 10 -52 9 -20 18 -31 21 -24 3 7 -1 20
-9 29 -10 13 -10 17 0 20 6 3 12 13 12 23 0 10 5 22 10 25 6 3 10 15 10 26 0
16 4 19 21 14 18 -6 20 -4 14 13 -5 19 -3 20 24 12 21 -6 33 -5 41 5 14 17 18
65 5 62 -5 -1 -9 -12 -7 -25 4 -29 -26 -42 -44 -18 -10 14 -16 15 -33 6 -26
-13 -41 -6 -41 21 0 11 -7 19 -16 19 -11 0 -14 6 -9 20 7 21 -9 28 -20 9 -4
-6 -13 1 -21 17 -11 21 -12 30 -2 41 10 13 13 12 20 -6 12 -34 35 -26 30 10
l-4 30 36 -20 c29 -17 36 -18 36 -6 0 8 4 15 9 15 14 0 21 -28 12 -53 -4 -12
-6 -28 -4 -35 7 -19 23 -3 23 23 0 15 7 26 20 30 13 4 20 15 20 31 0 15 6 24
16 24 10 0 14 -6 10 -15 -3 -8 5 -26 18 -40 27 -29 36 -31 36 -10 0 20 5 19
34 -9 26 -23 35 -43 15 -31 -37 24 -108 2 -96 -29 3 -7 1 -18 -5 -24 -15 -15
31 -43 59 -36 28 7 30 -6 3 -29 -11 -9 -20 -24 -20 -32 0 -21 -9 -19 -36 10
-19 20 -29 24 -56 18 -42 -8 -44 -9 -28 -28 10 -12 10 -21 0 -45 -11 -27 -14
-29 -25 -14 -8 11 -19 15 -30 10 -17 -6 -17 -7 0 -26 9 -10 18 -34 18 -52 2
-38 25 -61 85 -81 l40 -14 8 46 c4 25 6 57 5 70 -2 15 2 22 10 19 7 -2 15 -19
17 -38 2 -18 13 -41 24 -50 25 -20 16 -44 -13 -37 -11 3 -19 0 -19 -5 0 -16
77 -1 138 27 34 16 52 30 52 42 0 13 2 15 9 5 11 -19 64 6 56 26 -4 11 -2 12
8 4 10 -9 18 -8 33 2 24 16 92 28 99 16 2 -4 -2 -13 -10 -20 -12 -10 -18 -10
-29 0 -12 9 -20 4 -45 -30 -50 -69 -55 -206 -8 -218 18 -5 19 -6 4 -11 -16 -6
-14 -12 13 -54 16 -26 36 -47 45 -47 8 0 15 -5 15 -10 0 -14 85 -50 113 -49
l22 0 -22 11 c-27 13 -30 43 -5 57 9 6 11 11 5 11 -7 0 -13 5 -13 10 0 6 8 5
19 -2 16 -10 17 -15 8 -26 -9 -11 -7 -17 6 -27 9 -7 17 -17 17 -24 0 -18 52
-13 90 9 19 11 62 33 95 49 33 16 71 38 85 49 34 27 62 30 82 10 29 -29 148
-52 148 -28 0 6 -4 10 -10 10 -18 0 -10 22 10 27 11 3 20 9 20 14 0 5 9 9 20
9 13 0 20 7 20 20 0 13 -7 20 -19 20 -11 0 -26 3 -35 6 -11 4 -15 -2 -14 -26
1 -37 -21 -57 -38 -35 -14 19 -43 19 -50 0 -10 -25 -26 -17 -22 12 2 16 10 29
18 29 8 1 26 2 39 3 l23 1 -23 20 -24 19 27 1 c37 0 45 18 11 26 -17 5 -28 3
-31 -4 -5 -16 -22 -5 -22 15 0 9 6 13 14 10 11 -4 11 -1 2 19 -8 18 -17 23
-32 19 -16 -3 -26 2 -38 20 -22 34 -50 34 -42 1 6 -25 -9 -47 -16 -25 -2 7
-13 13 -24 13 -11 1 -25 5 -32 10 -7 4 -12 1 -12 -8 0 -9 -4 -16 -10 -16 -5 0
-10 5 -10 11 0 16 24 36 38 31 7 -2 12 6 12 21 0 14 5 27 11 29 9 3 9 13 0 39
-12 37 -7 69 11 69 5 0 12 -9 15 -20 8 -29 33 -25 33 4 0 14 4 28 10 31 6 3
10 24 10 46 0 29 -4 39 -16 39 -11 0 -14 -6 -9 -20 7 -23 -2 -25 -29 -5 -13
10 -17 23 -14 45 4 25 2 29 -13 25 -24 -8 -35 26 -13 42 12 9 21 10 30 2 7 -6
14 -6 18 -1 3 6 0 15 -8 21 -8 7 -17 23 -20 36 -9 34 -40 34 -34 0 3 -14 -1
-33 -8 -42 -12 -17 -13 -17 -20 0 -3 10 -2 23 4 29 7 7 7 19 2 34 -9 22 -7 24
25 24 18 0 37 5 41 11 5 8 -2 10 -23 7 -26 -4 -29 -2 -25 19 6 33 -4 54 -23
47 -9 -4 -14 -12 -11 -19 2 -7 -3 -23 -11 -35 -14 -20 -17 -21 -25 -6 -5 9 -6
26 -2 38 5 18 3 20 -20 16 -18 -4 -27 0 -31 12 -3 10 -16 30 -29 45 l-23 27
-7 -59 c-7 -62 -25 -131 -37 -148 -4 -6 -11 -38 -15 -73 -5 -52 -4 -62 8 -62
9 0 23 -10 32 -23 15 -21 16 -21 29 -5 15 20 37 24 37 8 0 -5 9 -10 20 -10 11
0 20 7 20 15 0 8 4 15 9 15 17 0 5 -66 -17 -95 -21 -29 -22 -29 -37 -11 -12
16 -18 17 -27 8 -17 -17 -38 -15 -38 3 0 24 -28 17 -33 -7 -2 -13 -5 5 -6 38
-1 43 -6 66 -17 75 -24 19 -33 51 -54 174 -41 241 -114 523 -161 615 -9 19
-35 46 -56 58 -30 19 -135 146 -151 184 -2 4 18 1 45 -7 84 -26 351 -75 406
-75 106 0 66 15 -83 31 -149 16 -191 29 -160 49 8 5 36 10 63 10 46 0 47 1 47
32 0 17 -8 41 -18 52 -32 36 -44 95 -27 130 11 21 12 32 4 37 -8 4 -8 9 -1 13
7 4 3 19 -11 41 -19 29 -28 34 -57 33 -20 -1 -44 4 -55 9 -11 6 -38 14 -59 17
-22 4 -67 20 -100 36 -34 16 -78 32 -98 35 -44 8 -81 42 -105 96 -9 22 -20 39
-23 39 -4 0 -3 -26 2 -57z m148 -443 c0 -5 -7 -7 -15 -4 -8 4 -15 8 -15 10 0
2 7 4 15 4 8 0 15 -4 15 -10z m-420 -250 c0 -5 -7 -10 -16 -10 -8 0 -12 5 -9
10 3 6 10 10 16 10 5 0 9 -4 9 -10z m95 -150 c3 -5 -1 -10 -9 -10 -8 0 -18 5
-21 10 -3 6 1 10 9 10 8 0 18 -4 21 -10z m125 1 c0 -6 -4 -13 -10 -16 -5 -3
-10 1 -10 9 0 9 5 16 10 16 6 0 10 -4 10 -9z m400 -36 c0 -8 0 -18 1 -22 0 -4
-4 -9 -9 -11 -5 -1 -9 9 -9 23 0 14 3 25 8 25 5 0 9 -7 9 -15z m-123 -17 c-3
-8 -6 -5 -6 6 -1 11 2 17 5 13 3 -3 4 -12 1 -19z m-1587 -3 c0 -8 -9 -15 -20
-15 -17 0 -19 2 -8 15 17 19 28 19 28 0z m295 -55 c3 -11 4 -24 0 -29 -3 -6 3
-15 12 -20 17 -10 17 -12 -4 -30 -12 -10 -25 -30 -29 -45 -3 -14 -10 -29 -15
-32 -5 -3 -9 -13 -9 -24 0 -19 -19 -30 -53 -30 -22 1 -22 1 -2 16 17 12 18 16
5 24 -12 8 -12 10 3 16 19 7 24 46 5 43 -34 -4 -38 2 -37 54 0 41 2 47 9 30 7
-17 18 -23 39 -23 29 0 41 14 41 51 0 25 27 25 35 -1z m55 5 c0 -8 -4 -15 -10
-15 -5 0 -10 7 -10 15 0 8 5 15 10 15 6 0 10 -7 10 -15z m163 -35 c3 -11 2
-20 -3 -20 -8 0 -20 24 -20 41 0 17 17 1 23 -21z m1327 10 c0 -5 -2 -10 -4
-10 -3 0 -8 5 -11 10 -3 6 -1 10 4 10 6 0 11 -4 11 -10z m-514 -8 c15 -10 34
-68 26 -78 -4 -4 1 -4 10 -1 11 4 22 -3 32 -19 9 -13 12 -24 6 -24 -5 0 -10
-7 -10 -15 0 -8 7 -15 15 -15 20 0 19 -19 0 -27 -14 -5 -14 -8 1 -24 10 -11
12 -19 6 -19 -7 0 -12 -9 -12 -20 0 -11 5 -20 10 -20 6 0 10 4 10 10 0 5 6 7
14 4 8 -3 12 -13 9 -24 -3 -10 0 -21 6 -24 6 -4 11 -12 11 -17 0 -5 -11 -2
-25 7 -25 16 -45 12 -45 -11 0 -7 -7 -15 -15 -19 -8 -3 -15 -17 -15 -31 0 -20
-5 -25 -25 -25 -14 0 -25 -4 -25 -10 0 -5 -4 -10 -10 -10 -5 0 -10 7 -10 15 0
8 5 15 10 15 6 0 8 11 4 25 -5 20 -3 24 10 19 9 -3 16 -1 16 5 0 6 -4 11 -9
11 -8 0 -16 34 -23 89 -2 20 -39 61 -55 61 -16 0 -16 3 -1 51 11 37 12 38 30
23 17 -16 18 -16 18 15 0 29 2 31 25 25 32 -8 32 3 -2 38 -25 26 -16 40 13 20z
m-843 -22 c3 -11 1 -23 -4 -26 -5 -3 -9 6 -9 20 0 31 6 34 13 6z m127 -24 c0
-8 -4 -18 -10 -21 -5 -3 -10 3 -10 14 0 12 5 21 10 21 6 0 10 -6 10 -14z m660
5 c0 -6 -4 -13 -10 -16 -5 -3 -10 1 -10 9 0 9 5 16 10 16 6 0 10 -4 10 -9z
m495 -16 c0 -10 -6 -20 -12 -22 -8 -3 -13 5 -13 22 0 17 5 25 13 23 6 -3 12
-13 12 -23z m95 5 c0 -11 -4 -20 -10 -20 -5 0 -10 9 -10 20 0 11 5 20 10 20 6
0 10 -9 10 -20z m-209 -53 c-1 -12 -15 -9 -19 4 -3 6 1 10 8 8 6 -3 11 -8 11
-12z m-451 -17 c0 -5 -2 -10 -4 -10 -3 0 -8 5 -11 10 -3 6 -1 10 4 10 6 0 11
-4 11 -10z m670 -40 c0 -10 -7 -23 -15 -30 -20 -17 -19 -28 5 -32 24 -4 14
-25 -15 -30 -18 -3 -20 3 -23 50 -3 60 11 90 34 71 8 -6 14 -19 14 -29z m-95
-47 c15 -35 15 -39 -2 -50 -13 -10 -14 -16 -5 -25 7 -7 12 -18 12 -26 0 -10
-3 -10 -16 2 -19 19 -26 20 -42 4 -16 -16 -21 -8 -15 24 3 16 14 30 27 34 29
9 37 26 19 39 -9 7 -13 17 -9 23 11 18 14 15 31 -25z m-270 17 c3 -5 1 -10 -4
-10 -6 0 -11 5 -11 10 0 6 2 10 4 10 3 0 8 -4 11 -10z m182 4 c-3 -3 -12 -4
-19 -1 -8 3 -5 6 6 6 11 1 17 -2 13 -5z m-5 -62 c-6 -2 -12 -11 -12 -19 0 -13
-2 -13 -17 -2 -15 13 -16 11 -10 -11 5 -20 1 -27 -20 -37 -15 -7 -35 -13 -46
-13 -28 0 -14 25 16 28 15 2 27 7 27 12 0 5 -6 7 -14 4 -7 -3 -16 3 -20 13 -3
10 -9 25 -13 33 -5 13 -4 13 10 1 10 -8 24 -10 34 -6 10 5 21 7 26 7 4 -1 7 3
7 8 0 7 8 6 22 -1 14 -8 18 -14 10 -17z m-162 -12 c0 -5 -4 -10 -10 -10 -5 0
-10 5 -10 10 0 6 5 10 10 10 6 0 10 -4 10 -10z m-30 -25 c0 -8 -4 -15 -10 -15
-5 0 -7 7 -4 15 4 8 8 15 10 15 2 0 4 -7 4 -15z m-1049 -66 c-6 -16 -10 -18
-10 -7 -1 22 12 55 16 42 2 -6 -1 -22 -6 -35z m179 -28 c0 -6 -9 -15 -20 -21
-24 -13 -26 -33 -5 -50 23 -19 18 -29 -12 -21 -31 8 -47 49 -28 74 7 9 16 13
20 9 4 -4 6 0 3 8 -3 8 -12 14 -22 12 -9 -2 -16 4 -16 12 0 9 6 13 14 10 7 -3
16 2 20 12 5 14 9 13 26 -9 11 -14 20 -30 20 -36z m903 4 c-7 -21 -13 -19 -13
6 0 11 4 18 10 14 5 -3 7 -12 3 -20z m137 -1 c0 -8 -4 -14 -10 -14 -5 0 -10 9
-10 21 0 11 5 17 10 14 6 -3 10 -13 10 -21z m217 -6 c-3 -8 -6 -5 -6 6 -1 11
2 17 5 13 3 -3 4 -12 1 -19z m-1434 -18 c3 -11 1 -18 -4 -15 -11 7 -23 -40
-14 -54 3 -6 1 -11 -4 -11 -19 0 -41 -70 -35 -110 7 -41 -7 -60 -30 -41 -14
12 -14 50 -1 86 21 56 58 151 62 158 8 13 21 7 26 -13z m1737 1 c-1 -15 -17
-26 -40 -26 -32 0 -33 -25 -3 -41 25 -12 20 -24 -8 -24 -19 0 -39 28 -39 54 0
20 57 56 76 49 8 -3 14 -8 14 -12z m-1680 -16 c0 -14 9 -34 20 -45 26 -26 26
-34 0 -20 -26 14 -45 3 -29 -16 8 -10 8 -14 0 -14 -6 0 -11 4 -11 9 0 5 -9 11
-20 14 -11 3 -20 10 -20 17 0 6 4 9 9 6 12 -8 33 19 31 41 -3 26 -1 33 10 33
6 0 10 -11 10 -25z m692 -20 c0 -5 -5 -11 -11 -13 -6 -2 -11 4 -11 13 0 9 5
15 11 13 6 -2 11 -8 11 -13z m388 0 c-7 -8 -14 -15 -15 -15 -2 0 -5 7 -9 15
-4 10 1 15 16 15 17 0 18 -2 8 -15z m637 -17 c-3 -8 -6 -5 -6 6 -1 11 2 17 5
13 3 -3 4 -12 1 -19z m-362 2 c3 -5 1 -10 -4 -10 -6 0 -11 5 -11 10 0 6 2 10
4 10 3 0 8 -4 11 -10z m-1485 -10 c0 -5 -2 -10 -4 -10 -3 0 -8 5 -11 10 -3 6
-1 10 4 10 6 0 11 -4 11 -10z m830 -15 c7 -8 15 -13 19 -11 4 3 8 -13 8 -35 2
-36 -9 -51 -21 -30 -3 4 -19 11 -36 15 -25 5 -29 9 -21 23 5 10 12 26 15 36 7
21 20 22 36 2z m1007 -71 c-7 -7 -37 7 -37 17 0 5 7 9 15 9 8 0 14 3 14 8 -1
4 0 12 1 17 2 6 5 -3 7 -18 3 -16 3 -31 0 -33z m-1753 20 c8 -32 1 -44 -9 -15
-3 12 -11 21 -16 21 -5 0 -9 5 -9 10 0 22 28 8 34 -16z m206 11 c0 -8 -4 -15
-10 -15 -5 0 -10 7 -10 15 0 8 5 15 10 15 6 0 10 -7 10 -15z m1224 0 c-4 -10
0 -15 14 -15 28 0 37 -16 15 -28 -14 -9 -15 -13 -4 -26 14 -16 9 -20 -21 -17
-9 1 -19 -3 -23 -9 -3 -5 -17 -10 -31 -10 -14 0 -23 -4 -20 -9 8 -12 -4 -41
-16 -41 -6 0 -8 7 -4 15 3 8 4 15 2 15 -3 0 -11 3 -19 6 -10 3 -17 -1 -19 -13
-3 -16 -5 -16 -16 5 -16 28 -7 45 19 37 15 -5 19 -1 19 15 0 18 4 21 23 16 69
-19 64 -21 62 28 -1 31 3 46 12 46 7 0 10 -7 7 -15z m261 -27 c4 -4 -3 -12
-15 -18 -18 -10 -24 -9 -31 1 -5 8 -9 18 -9 22 0 9 46 5 55 -5z m-1925 -19 c0
-5 -4 -9 -10 -9 -5 0 -10 7 -10 16 0 8 5 12 10 9 6 -3 10 -10 10 -16z m800 11
c0 -5 -4 -10 -10 -10 -5 0 -10 5 -10 10 0 6 5 10 10 10 6 0 10 -4 10 -10z
m634 -46 c-4 -14 -7 -38 -8 -55 -1 -30 -7 -33 -39 -23 -12 4 -16 12 -13 21 4
9 1 22 -5 29 -16 20 -3 44 23 44 21 1 22 2 6 14 -28 21 -21 28 12 11 25 -13
29 -20 24 -41z m188 34 c-7 -7 -12 -8 -12 -2 0 14 12 26 19 19 2 -3 -1 -11 -7
-17z m328 -8 c0 -5 -4 -10 -10 -10 -5 0 -10 5 -10 10 0 6 5 10 10 10 6 0 10
-4 10 -10z m-451 -27 c-7 -10 -15 -20 -16 -22 -4 -6 -33 20 -33 30 0 5 14 9
31 9 28 0 30 -2 18 -17z m-1245 -8 c-7 -16 -24 -21 -24 -6 0 8 7 13 27 20 1 1
0 -6 -3 -14z m1816 -10 c11 -13 10 -14 -4 -9 -9 3 -16 10 -16 15 0 13 6 11 20
-6z m-600 -25 c0 -5 -4 -10 -10 -10 -5 0 -10 5 -10 10 0 6 5 10 10 10 6 0 10
-4 10 -10z m587 -5 c8 -9 13 -19 9 -22 -3 -4 -11 -2 -18 5 -7 7 -17 8 -30 1
-20 -11 -21 -9 -12 15 8 20 31 20 51 1z m53 -5 c0 -5 -4 -10 -10 -10 -5 0 -10
5 -10 10 0 6 5 10 10 10 6 0 10 -4 10 -10z m-1742 -19 c3 -8 -1 -12 -9 -9 -7
2 -15 10 -17 17 -3 8 1 12 9 9 7 -2 15 -10 17 -17z m105 -5 c3 -8 0 -17 -8
-19 -15 -7 -25 1 -25 20 0 17 26 17 33 -1z m1091 -5 c3 -5 0 -11 -8 -14 -15
-6 -26 1 -26 15 0 11 27 10 34 -1z m-228 -16 c-8 -8 -17 -15 -20 -15 -3 0 -6
7 -6 15 0 9 9 15 21 15 18 0 19 -2 5 -15z m159 -6 c-8 -12 -35 -11 -35 2 0 5
5 7 10 4 6 -3 10 -1 10 5 0 6 5 8 10 5 6 -4 8 -11 5 -16z m521 -7 c-22 -5 -30
3 -21 18 5 8 11 7 22 -2 15 -12 14 -13 -1 -16z m-615 -39 c10 -27 0 -44 -35
-56 -8 -3 -7 -11 2 -27 17 -28 10 -35 -17 -18 -23 14 -22 27 7 90 20 45 29 47
43 11z m359 -6 c0 -20 0 -20 -14 -2 -8 11 -12 23 -9 28 8 13 23 -3 23 -26z
m175 23 c-3 -5 -11 -10 -16 -10 -6 0 -7 5 -4 10 3 6 11 10 16 10 6 0 7 -4 4
-10z m-390 -10 c3 -5 1 -10 -4 -10 -6 0 -11 5 -11 10 0 6 2 10 4 10 3 0 8 -4
11 -10z m-195 -10 c0 -5 -4 -10 -9 -10 -6 0 -13 5 -16 10 -3 6 1 10 9 10 9 0
16 -4 16 -10z m-807 -34 c10 -3 15 -11 12 -16 -5 -8 -11 -7 -21 1 -11 9 -14 8
-14 -4 0 -9 -4 -18 -10 -22 -13 -8 -50 17 -50 33 0 7 5 10 12 6 8 -5 9 0 6 14
-6 21 -5 21 20 8 15 -8 35 -17 45 -20z m327 4 c0 -5 -4 -10 -10 -10 -5 0 -10
5 -10 10 0 6 5 10 10 10 6 0 10 -4 10 -10z m1092 -45 c-2 -14 -11 -25 -18 -25
-8 0 -14 -4 -14 -10 0 -5 -5 -10 -11 -10 -5 0 -8 4 -5 9 4 5 2 21 -4 35 -9 25
2 37 15 16 12 -19 26 -10 19 12 -6 20 -5 21 8 10 9 -7 13 -22 10 -37z m-194
12 c2 -10 -3 -17 -11 -17 -18 0 -39 24 -30 34 12 12 38 2 41 -17z m242 13 c0
-5 -5 -10 -11 -10 -5 0 -7 5 -4 10 3 6 8 10 11 10 2 0 4 -4 4 -10z m-817 -17
c3 -5 -1 -14 -9 -21 -12 -11 -14 -9 -14 8 0 20 14 27 23 13z m689 2 c9 -9 -4
-53 -17 -59 -9 -3 -11 2 -8 15 3 10 0 26 -7 34 -10 12 -9 15 7 15 11 0 22 -2
25 -5z m-632 -25 c0 -5 -7 -10 -15 -10 -8 0 -15 5 -15 10 0 6 7 10 15 10 8 0
15 -4 15 -10z m440 -30 c0 -5 -4 -10 -9 -10 -6 0 -13 5 -16 10 -3 6 1 10 9 10
9 0 16 -4 16 -10z m-1140 -22 c0 -13 -32 -6 -37 9 -3 7 3 9 16 6 12 -3 21 -10
21 -15z m1390 2 c0 -5 -4 -10 -10 -10 -5 0 -10 5 -10 10 0 6 5 10 10 10 6 0
10 -4 10 -10z m166 -14 c14 -11 16 -17 7 -26 -14 -15 -29 -7 -36 20 -6 24 2
25 29 6z m-350 -22 c-4 -9 -9 -15 -11 -12 -3 3 -3 13 1 22 4 9 9 15 11 12 3
-3 3 -13 -1 -22z m-56 2 c0 -3 -4 -8 -10 -11 -5 -3 -10 -1 -10 4 0 6 5 11 10
11 6 0 10 -2 10 -4z m23 -16 c3 -11 1 -20 -4 -20 -5 0 -9 9 -9 20 0 11 2 20 4
20 2 0 6 -9 9 -20z m482 -29 c-8 -8 -35 22 -35 38 0 12 5 10 20 -9 10 -14 17
-27 15 -29z m-575 29 c0 -5 -4 -10 -10 -10 -5 0 -10 5 -10 10 0 6 5 10 10 10
6 0 10 -4 10 -10z m485 -38 c-8 -8 -25 10 -19 20 4 6 9 5 15 -3 4 -7 6 -15 4
-17z m-404 -26 c-17 -20 -71 -26 -71 -8 0 9 7 13 19 9 10 -2 25 -1 32 4 21 13
33 11 20 -5z"/>
<path d="M1320 1775 c0 -16 6 -25 15 -25 8 0 15 9 15 19 0 10 -7 21 -15 25
-11 4 -15 -1 -15 -19z"/>
<path d="M2472 1708 c-6 -16 -16 -28 -22 -28 -5 0 -10 -4 -10 -10 0 -11 53
-14 63 -3 4 3 3 11 -2 17 -5 6 -11 20 -13 31 -4 18 -6 17 -16 -7z"/>
<path d="M2970 1660 c0 -5 5 -10 10 -10 6 0 10 5 10 10 0 6 -4 10 -10 10 -5 0
-10 -4 -10 -10z"/>
<path d="M2320 1331 c0 -6 5 -13 10 -16 6 -3 10 1 10 9 0 9 -4 16 -10 16 -5 0
-10 -4 -10 -9z"/>
<path d="M2133 2581 c-19 -24 -20 -31 -9 -46 14 -19 36 -13 36 10 0 8 11 22
25 31 33 21 32 34 -2 33 -18 0 -36 -10 -50 -28z"/>
<path d="M2130 2485 c0 -18 4 -23 15 -19 17 7 17 7 9 28 -9 24 -24 19 -24 -9z"/>
<path d="M1827 2487 c-3 -8 3 -21 14 -31 26 -22 28 -20 20 11 -8 30 -26 41
-34 20z"/>
<path d="M4000 2466 c0 -8 4 -17 9 -20 5 -4 7 3 4 14 -6 23 -13 26 -13 6z"/>
<path d="M4020 2416 c0 -11 9 -16 26 -16 31 0 28 23 -4 28 -15 2 -22 -2 -22
-12z"/>
<path d="M1726 2395 c-26 -9 -46 -11 -62 -5 -17 7 -24 6 -25 -3 -1 -6 -2 -21
-3 -32 0 -11 -10 -21 -21 -23 -22 -4 -54 -40 -55 -60 0 -17 46 -10 62 10 19
23 68 33 68 13 0 -8 5 -15 10 -15 6 0 10 5 10 10 0 6 11 15 25 20 30 11 34 34
5 25 -16 -5 -20 -2 -20 19 0 20 8 29 33 40 41 18 24 19 -27 1z m-36 -49 c0 -8
-4 -18 -10 -21 -5 -3 -10 3 -10 14 0 12 5 21 10 21 6 0 10 -6 10 -14z"/>
<path d="M4150 2378 c0 -9 11 -30 25 -46 14 -17 25 -36 25 -44 0 -7 9 -21 20
-31 22 -19 18 -42 -6 -33 -19 7 -19 -48 0 -64 8 -6 20 -36 27 -66 7 -30 16
-57 21 -60 4 -3 8 -17 8 -32 0 -15 7 -36 15 -46 20 -27 19 -36 -6 -36 -17 0
-19 -3 -10 -14 6 -7 8 -21 5 -31 -6 -14 -3 -16 14 -11 23 8 42 -16 35 -44 -3
-10 0 -21 6 -24 6 -4 11 -22 11 -40 0 -36 23 -101 40 -111 5 -3 10 -15 10 -25
0 -10 6 -25 14 -33 18 -17 23 -48 12 -66 -7 -10 -1 -21 17 -37 14 -12 31 -24
38 -26 7 -2 13 -26 14 -60 1 -30 6 -62 11 -69 9 -14 10 -19 13 -39 0 -5 8 -10
16 -10 8 0 15 -5 15 -11 0 -15 83 55 114 96 l26 34 -23 69 c-13 39 -30 77 -38
86 -33 36 -39 46 -39 64 0 10 -7 27 -15 38 -8 10 -15 28 -15 38 0 10 -13 32
-30 48 -22 21 -30 37 -30 63 0 19 -4 35 -10 35 -5 0 -12 11 -16 25 -3 13 -12
29 -20 36 -8 6 -14 18 -14 26 0 7 -9 23 -20 35 -11 12 -20 28 -20 35 0 7 -5
13 -10 13 -6 0 -8 10 -4 24 4 18 -2 31 -25 55 -28 28 -36 48 -32 74 2 11 -48
97 -70 122 -86 97 -99 109 -99 93z"/>
<path d="M4090 2316 c0 -8 5 -18 10 -21 6 -3 10 3 10 14 0 12 -4 21 -10 21 -5
0 -10 -6 -10 -14z"/>
<path d="M3727 2283 c-21 -11 -26 -19 -22 -34 5 -16 -2 -23 -42 -40 -26 -11
-49 -22 -51 -23 -10 -11 -61 -212 -57 -226 4 -14 -13 -26 -77 -57 -46 -22 -99
-54 -118 -71 -19 -18 -38 -32 -41 -32 -15 0 -60 -84 -70 -129 -9 -45 -8 -53
12 -80 27 -36 30 -37 46 -11 11 16 10 18 -3 13 -15 -5 -15 -3 0 25 10 20 12
33 6 37 -20 12 3 27 34 21 17 -3 38 -1 46 4 13 8 12 10 -3 10 -26 0 -15 24 13
28 20 3 22 0 17 -20 -4 -12 -7 -31 -7 -40 0 -11 -7 -17 -17 -16 -43 3 -54 -2
-51 -24 2 -17 9 -22 27 -20 18 2 22 -2 17 -14 -8 -20 11 -54 29 -54 8 0 15 -4
15 -9 0 -5 10 -11 22 -14 18 -5 19 -9 9 -21 -13 -16 -7 -36 10 -36 6 0 7 9 4
22 -6 17 -4 20 9 15 9 -4 16 -2 16 3 0 6 -7 10 -16 10 -8 0 -12 4 -9 10 3 5 1
19 -5 30 -15 29 12 74 40 65 10 -3 21 -1 25 5 9 15 25 12 32 -7 8 -21 52 -63
65 -63 5 0 7 4 4 9 -7 11 48 22 71 14 15 -5 14 -3 -2 10 -17 13 -18 19 -8 36
7 11 10 27 7 36 -4 10 0 15 14 15 28 0 39 -20 18 -32 -21 -12 -11 -29 12 -21
16 6 16 5 1 -13 -20 -24 -23 -94 -4 -94 8 0 19 8 25 18 9 15 10 15 8 0 -2 -9
2 -16 7 -16 6 1 9 9 7 20 -2 10 2 18 7 18 6 0 11 9 11 20 0 11 -4 20 -10 20
-13 0 -13 31 1 50 8 13 12 12 26 -7 19 -27 33 -30 33 -5 0 9 12 30 27 47 22
25 33 30 70 28 37 -1 43 1 43 19 0 11 -8 22 -20 25 -11 3 -20 10 -20 15 0 6 7
8 15 4 10 -4 15 1 15 14 0 11 -5 20 -12 20 -6 0 -3 9 7 20 22 24 35 26 35 5 0
-8 6 -15 13 -15 8 0 11 14 9 46 -3 36 -9 48 -28 56 -16 8 -26 23 -32 52 -7 38
-5 55 24 139 8 22 26 23 22 0 -2 -11 7 -19 26 -24 17 -5 31 -7 33 -5 5 5 -162
167 -188 181 -98 57 -125 63 -172 38z m-77 -114 c0 -5 -4 -9 -10 -9 -5 0 -10
7 -10 16 0 8 5 12 10 9 6 -3 10 -10 10 -16z m240 -409 c0 -5 -5 -10 -11 -10
-5 0 -7 5 -4 10 3 6 8 10 11 10 2 0 4 -4 4 -10z m-366 -21 c-8 -14 -24 -10
-24 6 0 9 6 12 15 9 8 -4 12 -10 9 -15z m177 -18 c13 -12 17 -21 10 -26 -6 -3
-18 -23 -26 -42 -12 -29 -18 -34 -27 -25 -10 10 -10 17 0 32 7 12 8 20 2 20
-14 0 -13 33 2 48 15 15 15 15 39 -7z m139 9 c13 -8 13 -10 -2 -10 -9 0 -20 5
-23 10 -8 13 5 13 25 0z m-296 -43 c2 -35 -13 -46 -30 -23 -15 21 -34 13 -34
-15 0 -11 -4 -18 -8 -15 -16 10 0 64 21 74 34 17 50 10 51 -21z m216 13 c0 -5
-4 -10 -10 -10 -5 0 -10 5 -10 10 0 6 5 10 10 10 6 0 10 -4 10 -10z m-140 -90
c0 -11 -4 -20 -10 -20 -5 0 -10 9 -10 20 0 11 5 20 10 20 6 0 10 -9 10 -20z"/>
<path d="M1500 2282 c0 -5 9 -17 20 -27 17 -16 20 -16 26 -2 3 9 3 21 -1 27
-7 12 -45 14 -45 2z"/>
<path d="M1480 2217 c0 -31 3 -35 30 -39 24 -4 30 -1 30 14 0 19 -15 24 -25 8
-12 -19 -25 -10 -19 14 3 13 1 27 -5 30 -7 5 -11 -5 -11 -27z"/>
<path d="M1987 2184 c-8 -8 1 -24 13 -24 4 0 10 7 14 15 5 15 -14 21 -27 9z"/>
<path d="M2040 2159 c0 -5 5 -7 10 -4 6 3 10 8 10 11 0 2 -4 4 -10 4 -5 0 -10
-5 -10 -11z"/>
<path d="M1545 2150 c3 -5 8 -10 11 -10 2 0 4 5 4 10 0 6 -5 10 -11 10 -5 0
-7 -4 -4 -10z"/>
<path d="M1258 2138 c9 -9 15 -9 24 0 9 9 7 12 -12 12 -19 0 -21 -3 -12 -12z"/>
<path d="M1520 2100 c0 -5 5 -10 11 -10 5 0 7 5 4 10 -3 6 -8 10 -11 10 -2 0
-4 -4 -4 -10z"/>
<path d="M1310 2074 c0 -8 5 -12 10 -9 6 4 8 11 5 16 -9 14 -15 11 -15 -7z"/>
<path d="M1450 2084 c-8 -3 -21 -8 -29 -10 -12 -4 -12 -7 1 -21 14 -13 20 -14
47 -2 44 20 27 48 -19 33z"/>
<path d="M2070 2070 c0 -5 5 -10 10 -10 6 0 10 5 10 10 0 6 -4 10 -10 10 -5 0
-10 -4 -10 -10z"/>
<path d="M2085 1988 c-4 -24 -12 -46 -18 -49 -5 -4 2 -15 17 -24 25 -17 26
-19 10 -36 -16 -17 -15 -19 12 -29 24 -10 30 -8 46 12 12 15 20 19 25 12 5 -6
18 -16 30 -22 33 -18 39 13 8 40 -16 14 -23 28 -19 40 3 10 1 18 -5 18 -5 0
-12 -9 -16 -19 -3 -11 -13 -25 -21 -32 -26 -21 -52 23 -46 76 6 57 -14 68 -23
13z"/>
<path d="M4050 2007 c0 -14 35 -39 44 -30 7 7 -23 43 -36 43 -4 0 -8 -6 -8
-13z"/>
<path d="M4688 1913 c-21 -5 -24 -22 -5 -27 48 -15 67 -16 67 -2 0 13 -31 39
-42 35 -2 -1 -11 -3 -20 -6z"/>
<path d="M4627 1880 c3 -11 1 -20 -5 -20 -6 0 -9 -12 -8 -27 2 -16 4 -32 5
-38 2 -15 41 68 41 87 0 11 -7 18 -19 18 -14 0 -18 -5 -14 -20z"/>
<path d="M2006 1865 c4 -8 8 -15 10 -15 2 0 4 7 4 15 0 8 -4 15 -10 15 -5 0
-7 -7 -4 -15z"/>
<path d="M1960 1844 c0 -8 5 -12 10 -9 6 3 10 10 10 16 0 5 -4 9 -10 9 -5 0
-10 -7 -10 -16z"/>
<path d="M4190 1805 c0 -8 4 -15 10 -15 5 0 7 7 4 15 -4 8 -8 15 -10 15 -2 0
-4 -7 -4 -15z"/>
<path d="M4231 1764 c0 -11 3 -14 6 -6 3 7 2 16 -1 19 -3 4 -6 -2 -5 -13z"/>
<path d="M2027 1763 c-10 -9 5 -33 19 -33 18 0 18 26 0 33 -8 3 -16 3 -19 0z"/>
<path d="M4735 1750 c-3 -5 -1 -10 4 -10 6 0 11 5 11 10 0 6 -2 10 -4 10 -3 0
-8 -4 -11 -10z"/>
<path d="M1895 1730 c-18 -20 -35 -130 -21 -130 4 0 16 5 27 10 15 9 19 7 19
-7 0 -15 2 -16 10 -3 5 8 7 24 5 35 -3 11 -2 14 1 8 9 -21 34 -15 34 8 0 18 2
19 15 9 12 -10 15 -10 15 1 0 20 -38 41 -61 34 -10 -4 -19 -2 -19 3 0 6 5 12
12 14 13 5 4 38 -10 38 -5 0 -17 -9 -27 -20z"/>
<path d="M2087 1720 c3 -11 -3 -44 -13 -75 -14 -48 -20 -56 -37 -51 -27 7 -93
-43 -76 -58 8 -8 13 -8 16 2 7 19 28 14 57 -13 20 -19 25 -29 17 -38 -12 -15
-3 -31 22 -40 11 -4 17 -1 17 8 0 8 -4 15 -9 15 -14 0 -2 110 15 134 8 11 14
30 14 42 0 12 7 24 15 28 22 8 18 20 -14 44 -27 20 -29 20 -24 2z"/>
<path d="M4670 1732 c0 -12 20 -38 20 -27 0 6 5 3 10 -5 7 -11 12 -12 20 -4 9
9 4 16 -19 27 -17 9 -31 12 -31 9z"/>
<path d="M4706 1634 c-3 -9 -3 -20 0 -25 9 -15 34 10 27 27 -7 19 -19 18 -27
-2z"/>
<path d="M4790 1628 c0 -4 5 -10 11 -13 6 -4 7 -19 4 -36 -8 -36 8 -38 24 -3
15 34 6 63 -19 61 -11 -1 -20 -5 -20 -9z"/>
<path d="M4023 1590 c4 -15 -1 -32 -14 -48 -22 -29 -24 -45 -5 -61 16 -13 71
10 80 35 4 10 14 14 26 11 25 -6 36 9 20 28 -9 11 -17 12 -32 4 -22 -12 -26
-10 -42 23 -16 31 -41 37 -33 8z m37 -60 c0 -5 -4 -10 -10 -10 -5 0 -10 5 -10
10 0 6 5 10 10 10 6 0 10 -4 10 -10z"/>
<path d="M1846 1574 c-10 -26 -7 -31 19 -36 17 -4 25 -1 25 9 0 9 -6 13 -15
10 -8 -4 -17 -2 -20 3 -4 6 1 10 10 10 9 0 13 5 10 10 -9 15 -22 12 -29 -6z"/>
<path d="M3506 1574 c-9 -23 -7 -34 4 -34 6 0 10 8 10 17 0 13 3 14 12 5 9 -9
9 -15 0 -24 -16 -16 -16 -105 1 -112 8 -3 6 -8 -7 -17 -17 -11 -17 -12 9 -29
17 -11 23 -20 16 -24 -6 -4 -11 -18 -11 -32 0 -22 3 -24 23 -18 32 9 56 34 50
50 -4 10 0 12 11 8 9 -3 16 -10 16 -15 0 -21 41 -45 71 -41 l31 5 -28 22 c-16
13 -25 27 -21 32 5 4 14 0 21 -10 16 -20 26 -22 26 -4 0 31 21 34 51 7 32 -31
37 -50 14 -50 -8 0 -15 -7 -15 -16 0 -11 -6 -14 -20 -9 -14 5 -20 2 -20 -10 0
-9 -4 -13 -10 -10 -6 4 -10 -5 -10 -21 0 -25 1 -26 18 -11 21 19 52 6 52 -23
0 -11 4 -20 9 -20 14 0 23 32 12 43 -13 13 5 47 24 47 18 0 20 17 3 23 -10 3
-8 10 5 23 15 16 17 16 17 2 0 -23 19 -27 52 -11 30 15 45 33 29 33 -35 0 -61
17 -61 40 0 15 -7 20 -24 20 -31 0 -42 -16 -25 -36 15 -19 9 -25 -19 -17 -17
4 -22 13 -22 38 0 42 -21 61 -50 45 -19 -10 -20 -9 -14 14 7 28 -20 48 -53 40
-13 -4 -22 0 -26 10 -8 19 -27 21 -27 3 0 -7 -9 -22 -19 -34 -10 -11 -21 -28
-23 -39 -2 -10 -10 -20 -19 -22 -13 -2 -16 5 -15 35 1 26 6 38 16 39 8 1 21 2
28 3 6 0 12 8 12 17 0 12 -6 15 -25 10 -19 -5 -25 -2 -25 10 0 10 5 14 15 10
31 -11 13 22 -22 42 -30 16 -40 15 -47 -4z m160 -130 c-4 -12 -10 -14 -17 -7
-5 5 -7 17 -3 27 4 12 10 14 17 7 5 -5 7 -17 3 -27z"/>
<path d="M3841 1581 c-10 -6 -10 -10 -1 -16 7 -4 19 0 28 9 14 13 14 16 2 16
-8 0 -21 -4 -29 -9z"/>
<path d="M4707 1573 c-26 -7 -16 -25 17 -29 20 -2 26 1 24 13 -3 18 -15 23
-41 16z"/>
<path d="M1910 1560 c0 -5 7 -10 16 -10 8 0 12 5 9 10 -3 6 -10 10 -16 10 -5
0 -9 -4 -9 -10z"/>
<path d="M2120 1562 c0 -5 9 -20 21 -33 l21 -24 -4 30 c-2 19 -9 31 -20 33
-10 2 -18 -1 -18 -6z"/>
<path d="M3885 1559 c-4 -6 -4 -27 0 -47 6 -30 8 -33 16 -19 6 9 7 23 2 30 -4
6 -6 20 -5 30 4 19 -3 23 -13 6z"/>
<path d="M3955 1550 c-3 -5 1 -10 9 -10 9 0 16 5 16 10 0 6 -4 10 -9 10 -6 0
-13 -4 -16 -10z"/>
<path d="M1910 1510 c0 -4 11 -10 25 -13 16 -3 24 0 22 7 -4 12 -47 18 -47 6z"/>
<path d="M1994 1513 c4 -7 2 -22 -5 -34 -9 -17 -8 -20 3 -17 18 6 23 38 7 52
-9 8 -10 8 -5 -1z"/>
<path d="M3425 1489 c-4 -6 -3 -15 3 -21 6 -6 11 -4 15 6 7 18 -9 31 -18 15z"/>
<path d="M4125 1490 c3 -5 8 -10 11 -10 2 0 4 5 4 10 0 6 -5 10 -11 10 -5 0
-7 -4 -4 -10z"/>
<path d="M3852 1451 c0 -24 3 -28 19 -24 20 6 23 12 13 37 -10 26 -31 18 -32
-13z"/>
<path d="M1910 1448 c0 -19 2 -20 10 -8 13 19 13 30 0 30 -5 0 -10 -10 -10
-22z"/>
<path d="M2180 1455 c0 -8 -8 -23 -17 -33 -10 -10 -25 -27 -33 -37 -14 -18
-14 -19 2 -7 14 12 21 11 40 -2 12 -9 32 -16 43 -16 18 0 21 5 17 30 -3 22
-10 30 -25 30 -16 0 -18 3 -9 12 17 17 15 38 -3 38 -8 0 -15 -7 -15 -15z"/>
<path d="M4142 1458 c-11 -15 -34 -132 -33 -168 1 -33 19 -50 31 -30 7 11 10
4 11 -25 2 -60 0 -68 -22 -87 -11 -10 -18 -22 -14 -28 5 -8 11 -8 20 0 9 8 15
8 20 0 3 -5 14 -10 24 -10 10 0 24 -7 31 -15 7 -9 19 -14 27 -11 9 4 13 -3 13
-19 0 -28 -9 -32 -28 -13 -10 10 -15 10 -21 -1 -13 -21 -2 -41 22 -41 24 0
106 60 107 78 0 6 8 12 18 12 20 0 92 56 92 72 0 13 -102 0 -115 -15 -16 -19
-51 -8 -64 19 -27 60 3 121 55 111 26 -5 33 10 9 19 -8 4 -15 13 -15 22 0 12
-3 13 -12 4 -7 -7 -22 -12 -34 -12 -14 0 -24 -8 -28 -22 l-7 -23 -9 23 c-5 12
-18 22 -28 22 -45 0 -60 63 -17 74 14 4 23 11 20 16 -3 5 -12 7 -19 4 -7 -3
-16 1 -19 10 -3 8 1 17 9 20 9 3 12 10 9 16 -8 14 -20 13 -33 -2z"/>
<path d="M4340 1441 c0 -10 50 -25 58 -17 2 3 -7 10 -22 16 -33 12 -36 12 -36
1z"/>
<path d="M3910 1411 c0 -16 5 -33 10 -36 6 -4 10 5 10 19 0 14 0 29 1 33 0 4
-4 9 -10 11 -6 2 -11 -9 -11 -27z"/>
<path d="M3989 1417 c7 -10 10 -25 6 -39 -5 -16 -4 -20 4 -13 20 19 18 59 -4
63 -17 4 -17 2 -6 -11z"/>
<path d="M2037 1413 c-8 -13 12 -55 23 -48 7 4 6 14 -1 28 -15 29 -16 30 -22
20z"/>
<path d="M2080 1370 c0 -5 5 -10 10 -10 6 0 10 5 10 10 0 6 -4 10 -10 10 -5 0
-10 -4 -10 -10z"/>
<path d="M4035 1360 c-3 -5 1 -10 9 -10 9 0 16 5 16 10 0 6 -4 10 -9 10 -6 0
-13 -4 -16 -10z"/>
<path d="M1970 1336 c0 -14 4 -27 9 -30 10 -6 23 33 15 46 -10 16 -24 7 -24
-16z"/>
<path d="M4228 1348 c9 -9 15 -9 24 0 9 9 7 12 -12 12 -19 0 -21 -3 -12 -12z"/>
<path d="M4330 1351 c0 -5 5 -13 10 -16 6 -3 10 -2 10 4 0 5 -4 13 -10 16 -5
3 -10 2 -10 -4z"/>
<path d="M2036 1343 c-3 -3 -3 -10 0 -14 7 -12 34 -11 34 0 0 11 -26 22 -34
14z"/>
<path d="M4075 1342 c-14 -10 -12 -55 3 -60 7 -2 12 6 12 20 0 13 5 29 12 36
9 9 9 12 -2 12 -8 0 -19 -4 -25 -8z"/>
<path d="M4020 1310 c0 -5 5 -10 10 -10 6 0 10 5 10 10 0 6 -4 10 -10 10 -5 0
-10 -4 -10 -10z"/>
<path d="M4380 1293 c0 -4 5 -15 10 -23 8 -13 10 -13 10 2 0 9 -4 20 -10 23
-5 3 -10 3 -10 -2z"/>
<path d="M1980 1277 c0 -10 30 -41 34 -36 2 2 6 13 10 24 5 16 1 20 -19 20
-14 0 -25 -4 -25 -8z"/>
<path d="M3900 1270 c0 -19 3 -21 12 -12 9 9 9 15 0 24 -9 9 -12 7 -12 -12z"/>
<path d="M3556 1272 c-15 -3 -16 -6 -5 -13 11 -7 11 -9 -3 -9 -19 0 -23 -17
-10 -36 9 -13 80 -15 88 -3 9 15 -49 65 -70 61z"/>
<path d="M4030 1270 c0 -5 5 -10 10 -10 6 0 10 5 10 10 0 6 -4 10 -10 10 -5 0
-10 -4 -10 -10z"/>
<path d="M4280 1241 c0 -29 11 -51 25 -51 19 0 23 20 11 47 -13 28 -36 30 -36
4z"/>
<path d="M4450 1250 c0 -6 7 -10 15 -10 8 0 15 2 15 4 0 2 -7 6 -15 10 -8 3
-15 1 -15 -4z"/>
<path d="M3980 1226 c-7 -19 -14 -23 -31 -19 -16 4 -20 2 -17 -8 3 -8 11 -15
19 -15 8 -1 18 -2 24 -3 5 0 -1 -8 -13 -17 -19 -13 -21 -18 -10 -31 10 -12 9
-17 -4 -24 -9 -5 -19 -27 -23 -49 -7 -43 -24 -53 -32 -20 -6 24 -41 27 -39 4
0 -9 -5 -19 -12 -22 -9 -3 -13 3 -12 19 4 40 0 63 -7 55 -4 -4 -8 -19 -9 -34
-3 -53 -3 -53 -31 -46 -25 6 -26 5 -11 -7 15 -12 16 -19 6 -51 -6 -21 -15 -35
-19 -32 -4 2 -10 0 -14 -6 -3 -5 1 -10 9 -10 11 0 17 -15 22 -50 5 -36 12 -51
25 -55 11 -4 19 -15 19 -26 0 -20 0 -20 29 0 16 12 34 21 41 21 17 0 72 30 97
53 27 24 16 55 -19 52 -17 -1 -24 -9 -26 -28 -2 -15 -6 -27 -10 -27 -20 1 -33
20 -30 46 2 16 -1 29 -7 29 -5 0 -10 -4 -11 -10 0 -5 -4 -17 -7 -25 -3 -8 -5
-26 -4 -39 2 -19 -3 -24 -29 -26 -28 -2 -33 1 -38 28 -6 32 7 57 30 57 16 0
19 21 5 35 -5 6 -12 21 -16 35 -7 21 -5 23 6 13 20 -16 74 -20 91 -5 12 10 18
9 28 -3 7 -8 18 -15 24 -15 6 1 1 9 -12 19 l-22 19 20 46 c10 25 16 46 12 46
-4 0 2 7 12 15 30 23 47 80 30 103 -7 11 -10 22 -7 26 3 3 1 6 -6 6 -6 0 -16
-11 -21 -24z"/>
<path d="M3235 1189 c-10 -15 3 -25 16 -12 7 7 7 13 1 17 -6 3 -14 1 -17 -5z"/>
<path d="M3705 1181 c-3 -5 -1 -12 5 -16 5 -3 10 1 10 9 0 18 -6 21 -15 7z"/>
<path d="M2340 1159 c0 -11 5 -17 10 -14 6 3 10 13 10 21 0 8 -4 14 -10 14 -5
0 -10 -9 -10 -21z"/>
<path d="M3840 1164 c0 -9 5 -14 12 -12 18 6 21 28 4 28 -9 0 -16 -7 -16 -16z"/>
<path d="M1912 1149 c2 -7 10 -15 17 -17 8 -3 12 1 9 9 -2 7 -10 15 -17 17 -8
3 -12 -1 -9 -9z"/>
<path d="M3691 1133 c-1 -7 -8 -13 -16 -13 -8 0 -15 -9 -15 -20 0 -11 4 -20
10 -20 5 0 6 -7 3 -17 -4 -11 -3 -14 5 -9 7 4 12 3 12 -2 0 -16 -13 -22 -27
-11 -10 9 -13 8 -13 -4 0 -8 -4 -17 -9 -19 -5 -1 -3 -12 5 -23 14 -19 16 -19
28 -2 7 9 18 17 24 17 6 0 14 9 17 20 5 15 14 19 38 17 38 -3 48 22 16 41 -16
10 -24 11 -35 1 -17 -14 -18 -13 -32 26 -6 17 -11 24 -11 18z"/>
<path d="M3850 1119 c0 -5 5 -7 10 -4 6 3 10 8 10 11 0 2 -4 4 -10 4 -5 0 -10
-5 -10 -11z"/>
<path d="M4041 1119 c-20 -8 -22 -11 -10 -27 13 -15 12 -16 -4 -3 -13 10 -21
11 -29 3 -13 -13 -2 -32 18 -32 19 0 18 -10 -3 -26 -14 -10 -15 -13 -4 -14 11
0 9 -4 -4 -14 -19 -13 -19 -15 -3 -33 13 -14 15 -22 7 -30 -12 -12 -4 -33 12
-33 5 0 9 7 9 15 0 9 11 20 25 25 29 11 31 18 8 35 -9 7 -18 29 -19 49 l-3 36
24 -16 c14 -9 25 -23 25 -30 0 -31 19 -11 25 27 8 48 2 58 -26 40 -26 -16 -40
-4 -17 13 10 7 15 16 11 19 -8 9 -12 8 -42 -4z"/>
<path d="M3596 1074 c-14 -37 5 -49 23 -15 8 14 7 20 -3 24 -8 3 -17 -1 -20
-9z"/>
<path d="M3487 1064 c-9 -10 2 -24 18 -24 9 0 12 6 9 15 -6 16 -17 19 -27 9z"/>
<path d="M3530 1004 c0 -10 5 -14 15 -10 8 3 15 1 15 -4 0 -5 7 -7 15 -3 23 8
13 26 -18 30 -20 3 -27 -1 -27 -13z"/>
<path d="M4140 1002 c0 -5 7 -13 16 -16 10 -4 14 -1 12 6 -5 15 -28 23 -28 10z"/>
<path d="M2180 979 c0 -5 5 -7 10 -4 6 3 10 8 10 11 0 2 -4 4 -10 4 -5 0 -10
-5 -10 -11z"/>
<path d="M4110 976 c0 -9 5 -16 10 -16 6 0 10 4 10 9 0 6 -4 13 -10 16 -5 3
-10 -1 -10 -9z"/>
<path d="M3646 931 c-4 -7 -5 -15 -2 -18 9 -9 19 4 14 18 -4 11 -6 11 -12 0z"/>
<path d="M3680 862 c0 -5 9 -12 21 -15 13 -3 19 -1 16 6 -5 15 -37 22 -37 9z"/>
</g>
</svg>
